{"title":"In the Name of the King III 2014 DVDRip x264 AC3-AVeNGeRZ","uid":9510409,"size":1203548541,"categoryP":"video","categoryS":"movies","magnet":"?xt=urn:btih:57609dffe9b455b152724fe8f9dfec8028a5fedc&amp;dn=In+the+Name+of+the+King+III+2014+DVDRip+x264+AC3-AVeNGeRZ&amp;tr=udp%3A%2F%2Ftracker.openbittorrent.com%3A80&amp;tr=udp%3A%2F%2Fopen.demonii.com%3A1337&amp;tr=udp%3A%2F%2Ftracker.coppersurfer.tk%3A6969&amp;tr=udp%3A%2F%2Fexodus.desync.com%3A6969","seeders":2,"leechers":0,"uploader":"HeroMaster","files":-1,"time":1390397592,"description":"In the Name of the King III 2014 DVDRip x264 AC3-AVeNGeRZ        \n \n \n                  ImDB\n            -----------------\n \nLiNK.......: &lt;a href=&quot; http://www.imdb.com/title/tt2379386/&quot; rel=&quot;nofollow&quot; target=&quot;_NEW&quot;&gt; http://www.imdb.com/title/tt2379386/&lt;/a&gt;\n \nPlOT........: &quot;Hazen Kaine, an American contract killer living in Sofia, Bulgaria, gets more than he bargains for when he enters into a contract with the mob. One last job before he gets out and starts a new life for himself.\n                 \n \nSoURCE...............: DVD5.NTSC :bow:\n \nGeneral\nComplete name                            : In the Name of the King III 2014 DVDRip x264 AC3-AVeNGeRZ.mkv\nFormat                                   : Matroska\nFormat version                           : Version 2\nFile size                                : 1.11 GiB\nDuration                                 : 1h 25mn\nOverall bit rate mode                    : Variable\nOverall bit rate                         : 1 861 Kbps\nEncoded date                             : UTC 2014-01-22 11:02:34\nWriting application                      : mkvmerge v6.5.0 ('Isn't she lovely') built on Oct 20 2013 12:50:05\nWriting library                          : libebml v1.3.0 + libmatroska v1.4.1\n \nVideo\nID                                       : 1\nFormat                                   : AVC\nFormat/Info                              : Advanced Video Codec\nFormat profile                           : &lt;a class=&quot;__cf_email__&quot; href=&quot;/cdn-cgi/l/email-protection&quot; data-cfemail=&quot;5018393738101c647e61&quot;&gt;[email&amp;#160;protected]&lt;/a&gt;&lt;script cf-hash='f9e31' type=&quot;text/javascript&quot;&gt;\n/* &lt;![CDATA[ */!function(){try{var t=&quot;currentScript&quot;in document?document.currentScript:function(){for(var t=document.getElementsByTagName(&quot;script&quot;),e=t.length;e--;)if(t[e].getAttribute(&quot;cf-hash&quot;))return t[e]}();if(t&amp;&amp;t.previousSibling){var e,r,n,i,c=t.previousSibling,a=c.getAttribute(&quot;data-cfemail&quot;);if(a){for(e=&quot;&quot;,r=parseInt(a.substr(0,2),16),n=2;a.length-n;n+=2)i=parseInt(a.substr(n,2),16)^r,e+=String.fromCharCode(i);e=document.createTextNode(e),c.parentNode.replaceChild(e,c)}}}catch(u){}}();/* ]]&gt; */&lt;/script&gt;\nFormat settings, CABAC                   : Yes\nFormat settings, ReFrames                : 3 frames\nCodec ID                                 : V_MPEG4/ISO/AVC\nDuration                                 : 1h 25mn\nBit rate mode                            : Variable\nBit rate                                 : 1 440 Kbps\nMaximum bit rate                         : 40.0 Mbps\nWidth                                    : 720 pixels\nHeight                                   : 400 pixels\nDisplay aspect ratio                     : 16:9\nFrame rate mode                          : Constant\nFrame rate                               : 23.976 fps\nColor space                              : YUV\nChroma subsampling                       : 4:2:0\nBit depth                                : 8 bits\nScan type                                : Progressive\nBits/(Pixel*Frame)                       : 0.208\nStream size                              : 876 MiB (77%)\nWriting library                          : x264 core 140 r2377 1ca7bb9\n \nAudio\nID                                       : 2\nFormat                                   : AC-3\nFormat/Info                              : Audio Coding 3\nMode extension                           : CM (complete main)\nFormat settings, Endianness              : Big\nCodec ID                                 : A_AC3\nDuration                                 : 1h 25mn\nBit rate mode                            : Constant\nBit rate                                 : 384 Kbps\nChannel(s)                               : 6 channels\nChannel positions                        : Front: L C R, Side: L R, LFE\nSampling rate                            : 48.0 KHz\nBit depth                                : 16 bits\nCompression mode                         : Lossy\nStream size                              : 234 MiB (21%)\nLanguage                                 : English\nDefault                                  : Yes\nForced                                   : No\n\n\n::Greetz and Respect::\n\n\nALL CREDIT Goes to AVeNGeRZ for Encoding and Hotpena for Distribution.\n\n\n::Poster::\n\n &lt;a href=&quot;\nhttp://i.imgur.com/tigByiy.jpg&quot; rel=&quot;nofollow&quot; target=&quot;_NEW&quot;&gt;\nhttp://i.imgur.com/tigByiy.jpg&lt;/a&gt;\n\n\n::Screenshots::\n\n &lt;a href=&quot;\nhttp://i.imgur.com/qkzvHyW.jpg&quot; rel=&quot;nofollow&quot; target=&quot;_NEW&quot;&gt;\nhttp://i.imgur.com/qkzvHyW.jpg&lt;/a&gt;\n\n\nSEED AND ENJOY!","torrent":{"xt":"urn:btih:57609dffe9b455b152724fe8f9dfec8028a5fedc","amp;dn":"In+the+Name+of+the+King+III+2014+DVDRip+x264+AC3-AVeNGeRZ","amp;tr":["udp%3A%2F%2Ftracker.openbittorrent.com%3A80","udp%3A%2F%2Fopen.demonii.com%3A1337","udp%3A%2F%2Ftracker.coppersurfer.tk%3A6969","udp%3A%2F%2Fexodus.desync.com%3A6969"],"infoHash":"57609dffe9b455b152724fe8f9dfec8028a5fedc","infoHashBuffer":{"type":"Buffer","data":[87,96,157,255,233,180,85,177,82,114,79,232,249,223,236,128,40,165,254,220]},"announce":[],"urlList":[]}}